name symmetric_stride_kinematics_IKTD_Plus_4.mot
datacolumns 38
datarows 7
range 0.52148118 0.52834366
endheader
                time	/jointset/ground_pelvis/pelvis_tilt/value	/jointset/ground_pelvis/pelvis_list/value	/jointset/ground_pelvis/pelvis_rotation/value	/jointset/ground_pelvis/pelvis_tx/value	/jointset/ground_pelvis/pelvis_ty/value	/jointset/ground_pelvis/pelvis_tz/value	/jointset/hip_r/hip_flexion_r/value	/jointset/hip_r/hip_adduction_r/value	/jointset/hip_r/hip_rotation_r/value	/jointset/knee_r/knee_angle_r/value	/jointset/ankle_r/ankle_angle_r/value	/jointset/subtalar_r/subtalar_angle_r/value	/jointset/mtp_r/mtp_angle_r/value	/jointset/hip_l/hip_flexion_l/value	/jointset/hip_l/hip_adduction_l/value	/jointset/hip_l/hip_rotation_l/value	/jointset/knee_l/knee_angle_l/value	/jointset/ankle_l/ankle_angle_l/value	/jointset/subtalar_l/subtalar_angle_l/value	/jointset/mtp_l/mtp_angle_l/value	/jointset/back/lumbar_extension/value	/jointset/back/lumbar_bending/value	/jointset/back/lumbar_rotation/value	/jointset/acromial_r/arm_flex_r/value	/jointset/acromial_r/arm_add_r/value	/jointset/acromial_r/arm_rot_r/value	/jointset/elbow_r/elbow_flex_r/value	/jointset/radioulnar_r/pro_sup_r/value	/jointset/radius_hand_r/wrist_flex_r/value	/jointset/radius_hand_r/wrist_dev_r/value	/jointset/acromial_l/arm_flex_l/value	/jointset/acromial_l/arm_add_l/value	/jointset/acromial_l/arm_rot_l/value	/jointset/elbow_l/elbow_flex_l/value	/jointset/radioulnar_l/pro_sup_l/value	/jointset/radius_hand_l/wrist_flex_l/value	/jointset/radius_hand_l/wrist_dev_l/value	
          0.52148118	         -9.40096941	          6.54273742	        -18.06065072	          6.18756457	          0.96386654	          0.30791224	         -2.81827797	        -15.22761657	          9.48194289	        -51.85245180	        -30.37534013	        -14.39235395	         -8.63978054	         83.73162723	        -12.28018226	         -0.56717983	       -102.66209676	         -7.66690150	        -23.49752733	         15.66675895	        -10.36777801	         -4.72081870	         10.99595906	         88.96213618	          0.87568089	         -0.09389516	        101.40473276	         81.04604081	         -7.21423354	          7.93276509	        -74.31516176	          0.85883865	         -0.00113056	         72.87597762	         51.37043496	        -12.27606970	          7.70959562	
          0.52212803	         -9.40706734	          6.54527284	        -18.01757036	          6.19496822	          0.96409303	          0.30804611	         -2.82830159	        -15.21479346	          9.54379464	        -52.28324701	        -30.46756528	        -14.28041453	         -8.53575147	         83.73238831	        -12.31989164	         -0.60118754	       -101.90681538	         -7.90064604	        -23.51870220	         15.66677795	        -10.41405993	         -4.78849720	         10.98363344	         88.97688802	          0.90727658	         -0.11972173	        101.36861304	         80.92624221	         -7.11336348	          7.91282125	        -74.21276860	          0.88842726	         -0.00000130	         72.31168567	         51.34994375	        -12.38966616	          7.68984058	
          0.52417181	         -9.42126149	          6.55682353	        -17.87622041	          6.21832606	          0.96484753	          0.30847708	         -2.84640415	        -15.16991694	          9.73065770	        -53.65750129	        -30.70522995	        -13.92266404	         -8.22197094	         83.66972651	        -12.43597392	         -0.73553434	        -99.47116912	         -8.64421908	        -23.58688312	         15.66670578	        -10.57088516	         -5.01318950	         10.94480201	         88.96369325	          0.96389255	         -0.23083729	        101.33026231	         80.53544330	         -6.79465291	          7.84980183	        -73.85469974	          0.94881585	         -0.00000280	         70.59340045	         51.30230112	        -12.74858872	          7.62821472	
          0.52565303	         -9.42207260	          6.56428952	        -17.76834072	          6.23522700	          0.96543742	          0.30879557	         -2.85509479	        -15.13119446	          9.85388466	        -54.66148443	        -30.82348398	        -13.69010953	         -8.01203254	         83.55836666	        -12.51038778	         -0.85488080	        -97.66339573	         -9.18292857	        -23.63258079	         15.66668128	        -10.70077584	         -5.18274718	         10.91646218	         88.89861837	          0.96389404	         -0.34059591	        101.37085191	         80.24201839	         -6.56367222	          7.80413504	        -73.56537860	          0.96389310	         -0.01222518	         69.41475360	         51.28455631	        -13.00871037	          7.58315737	
          0.52565303	         -9.42207260	          6.56428952	        -17.76834072	          6.23522700	          0.96543742	          0.30879557	         -2.85509479	        -15.13119446	          9.85388466	        -54.66148443	        -30.82348398	        -13.69010953	         -8.01203254	         83.55836666	        -12.51038778	         -0.85488080	        -97.66339573	         -9.18292857	        -23.63258079	         15.66668128	        -10.70077584	         -5.18274718	         10.91646218	         88.89861837	          0.96389404	         -0.34059591	        101.37085191	         80.24201839	         -6.56367222	          7.80413504	        -73.56537860	          0.96389310	         -0.01222518	         69.41475360	         51.28455631	        -13.00871037	          7.58315737	
          0.52629988	         -9.41869913	          6.56629831	        -17.71960623	          6.24260186	          0.96570799	          0.30893573	         -2.85991567	        -15.11223862	          9.90339344	        -55.10087848	        -30.86038959	        -13.60253734	         -7.92608357	         83.49127328	        -12.53995889	         -0.91190672	        -96.86384587	         -9.41681316	        -23.65035127	         15.66672208	        -10.76337342	         -5.25769429	         10.90384630	         88.85595289	          0.95307744	         -0.39633812	        101.40538473	         80.11156839	         -6.46280203	          7.78419090	        -73.43183247	          0.96353929	         -0.02274922	         68.91865804	         51.28133001	        -13.12230672	          7.56321357	
          0.52834366	         -9.38928370	          6.56349226	        -17.55949660	          6.26588517	          0.96661961	          0.30938158	         -2.88590701	        -15.04208403	         10.04007853	        -56.48883295	        -30.92613794	        -13.40863096	         -7.68371738	         83.20262067	        -12.62182591	         -1.10809588	        -94.30189731	        -10.14559920	        -23.69341962	         15.66655740	        -10.98977546	         -5.49416995	         10.86311104	         88.66706934	          0.87568790	         -0.60144768	        101.56999060	         79.68918085	         -6.14409210	          7.72117380	        -72.98279269	          0.93992038	         -0.09102364	         67.42434613	         51.28886936	        -13.48122914	          7.50019686	
